<svg width="414" height="896" viewBox="0 0 414 896" fill="none" xmlns="http://www.w3.org/2000/svg">
<g clip-path="url(#clip0)">
<rect width="414" height="896" fill="white"/>
<g filter="url(#filter0_b)">
<path d="M-81 25.672L301.807 -193L832.94 736.802L450.133 955.474L-81 25.672Z" fill="#F2F2F2" fill-opacity="0.55"/>
</g>
<path d="M148 148H245C258.807 148 270 159.193 270 173V270H148V148Z" fill="url(#paint0_linear)"/>
<path d="M156.592 191.224H161.452V217H156.592V191.224ZM172.119 217V195.832H164.919V191.224H184.179V195.832H176.979V217H172.119ZM156.592 261V235.224H165.664C166.888 235.224 168.028 235.428 169.084 235.836C170.164 236.22 171.1 236.772 171.892 237.492C172.684 238.212 173.308 239.076 173.764 240.084C174.22 241.068 174.448 242.16 174.448 243.36C174.448 244.584 174.22 245.7 173.764 246.708C173.308 247.692 172.684 248.544 171.892 249.264C171.1 249.984 170.164 250.548 169.084 250.956C168.028 251.34 166.888 251.532 165.664 251.532H161.452V261H156.592ZM165.736 246.924C167.008 246.924 167.968 246.564 168.616 245.844C169.264 245.124 169.588 244.296 169.588 243.36C169.588 242.904 169.504 242.46 169.336 242.028C169.192 241.596 168.952 241.224 168.616 240.912C168.304 240.576 167.908 240.312 167.428 240.12C166.948 239.928 166.384 239.832 165.736 239.832H161.452V246.924H165.736ZM185.781 261.576C184.677 261.576 183.621 261.42 182.613 261.108C181.605 260.796 180.681 260.328 179.841 259.704C179.001 259.08 178.269 258.324 177.645 257.436C177.021 256.524 176.529 255.468 176.169 254.268L180.741 252.468C181.077 253.764 181.665 254.844 182.505 255.708C183.345 256.548 184.449 256.968 185.817 256.968C186.321 256.968 186.801 256.908 187.257 256.788C187.737 256.644 188.157 256.452 188.517 256.212C188.901 255.948 189.201 255.624 189.417 255.24C189.633 254.856 189.741 254.412 189.741 253.908C189.741 253.428 189.657 252.996 189.489 252.612C189.321 252.228 189.033 251.868 188.625 251.532C188.241 251.196 187.725 250.872 187.077 250.56C186.453 250.248 185.673 249.924 184.737 249.588L183.153 249.012C182.457 248.772 181.749 248.448 181.029 248.04C180.333 247.632 179.697 247.14 179.121 246.564C178.545 245.988 178.065 245.316 177.681 244.548C177.321 243.756 177.141 242.868 177.141 241.884C177.141 240.876 177.333 239.94 177.717 239.076C178.125 238.188 178.689 237.42 179.409 236.772C180.153 236.1 181.029 235.584 182.037 235.224C183.069 234.84 184.209 234.648 185.457 234.648C186.753 234.648 187.869 234.828 188.805 235.188C189.765 235.524 190.569 235.968 191.217 236.52C191.889 237.048 192.429 237.636 192.837 238.284C193.245 238.932 193.545 239.544 193.737 240.12L189.453 241.92C189.213 241.2 188.769 240.552 188.121 239.976C187.497 239.4 186.633 239.112 185.529 239.112C184.473 239.112 183.597 239.364 182.901 239.868C182.205 240.348 181.857 240.984 181.857 241.776C181.857 242.544 182.193 243.204 182.865 243.756C183.537 244.284 184.605 244.8 186.069 245.304L187.689 245.844C188.721 246.204 189.657 246.624 190.497 247.104C191.361 247.56 192.093 248.112 192.693 248.76C193.317 249.408 193.785 250.152 194.097 250.992C194.433 251.808 194.601 252.756 194.601 253.836C194.601 255.18 194.325 256.344 193.773 257.328C193.245 258.288 192.561 259.08 191.721 259.704C190.881 260.328 189.933 260.796 188.877 261.108C187.821 261.42 186.789 261.576 185.781 261.576ZM198.604 235.224H208C209.296 235.224 210.472 235.428 211.528 235.836C212.584 236.244 213.484 236.808 214.228 237.528C214.996 238.248 215.584 239.112 215.992 240.12C216.4 241.104 216.604 242.184 216.604 243.36C216.604 244.224 216.46 245.04 216.172 245.808C215.884 246.552 215.488 247.236 214.984 247.86C214.48 248.46 213.892 249 213.22 249.48C212.548 249.936 211.84 250.296 211.096 250.56L211.06 250.812L217.972 260.712V261H212.392L205.732 251.316H203.464V261H198.604V235.224ZM207.964 246.852C209.068 246.852 209.968 246.516 210.664 245.844C211.384 245.172 211.744 244.32 211.744 243.288C211.744 242.832 211.66 242.388 211.492 241.956C211.348 241.524 211.12 241.14 210.808 240.804C210.496 240.468 210.1 240.204 209.62 240.012C209.164 239.796 208.636 239.688 208.036 239.688H203.464V246.852H207.964ZM230.36 261.576C228.848 261.576 227.468 261.336 226.22 260.856C224.996 260.352 223.952 259.632 223.088 258.696C222.224 257.76 221.552 256.632 221.072 255.312C220.592 253.968 220.352 252.444 220.352 250.74V235.224H225.212V251.028C225.212 251.892 225.32 252.684 225.536 253.404C225.752 254.124 226.076 254.748 226.508 255.276C226.94 255.804 227.48 256.224 228.128 256.536C228.776 256.824 229.52 256.968 230.36 256.968C231.224 256.968 231.98 256.824 232.628 256.536C233.276 256.224 233.816 255.804 234.248 255.276C234.68 254.748 235.004 254.124 235.22 253.404C235.436 252.684 235.544 251.892 235.544 251.028V235.224H240.404V250.74C240.404 252.348 240.164 253.824 239.684 255.168C239.228 256.488 238.556 257.628 237.668 258.588C236.804 259.524 235.748 260.256 234.5 260.784C233.276 261.312 231.896 261.576 230.36 261.576ZM254.73 249.156H260.886V253.332H254.73V259.452H250.554V253.332H244.434V249.156H250.554V243.036H254.73V249.156Z" fill="white"/>
<path d="M69.2255 330.384H72.7355V349H69.2255V330.384ZM79.2692 337.924H79.4772C79.8759 337.283 80.4132 336.78 81.0892 336.416C81.7652 336.035 82.5366 335.844 83.4032 335.844C84.2006 335.844 84.9026 335.974 85.5092 336.234C86.1159 336.494 86.6099 336.867 86.9912 337.352C87.3899 337.82 87.6846 338.392 87.8752 339.068C88.0832 339.727 88.1872 340.463 88.1872 341.278V349H84.7812V341.694C84.7812 340.775 84.5732 340.099 84.1572 339.666C83.7586 339.215 83.1692 338.99 82.3892 338.99C81.9212 338.99 81.5052 339.094 81.1412 339.302C80.7946 339.493 80.4912 339.761 80.2312 340.108C79.9886 340.437 79.7979 340.836 79.6592 341.304C79.5379 341.755 79.4772 342.24 79.4772 342.76V349H76.0712V336.26H79.2692V337.924ZM97.039 330.176C97.5243 330.176 97.975 330.219 98.391 330.306C98.807 330.393 99.1797 330.505 99.509 330.644L98.547 333.686C98.3737 333.599 98.183 333.53 97.975 333.478C97.7843 333.426 97.5417 333.4 97.247 333.4C96.7443 333.4 96.3457 333.565 96.051 333.894C95.7563 334.206 95.609 334.648 95.609 335.22V336.26H98.781V339.172H95.609V349H92.203V339.172H89.915V336.26H92.203V335.012C92.203 334.232 92.3157 333.547 92.541 332.958C92.7837 332.351 93.1217 331.849 93.555 331.45C93.9883 331.034 94.4997 330.722 95.089 330.514C95.6783 330.289 96.3283 330.176 97.039 330.176ZM106.326 335.844C107.314 335.844 108.215 336.017 109.03 336.364C109.862 336.693 110.573 337.161 111.162 337.768C111.769 338.357 112.237 339.068 112.566 339.9C112.913 340.732 113.086 341.642 113.086 342.63C113.086 343.618 112.913 344.528 112.566 345.36C112.237 346.192 111.769 346.911 111.162 347.518C110.573 348.107 109.862 348.575 109.03 348.922C108.215 349.251 107.314 349.416 106.326 349.416C105.338 349.416 104.428 349.251 103.596 348.922C102.781 348.575 102.071 348.107 101.464 347.518C100.875 346.911 100.407 346.192 100.06 345.36C99.7306 344.528 99.5659 343.618 99.5659 342.63C99.5659 341.642 99.7306 340.732 100.06 339.9C100.407 339.068 100.875 338.357 101.464 337.768C102.071 337.161 102.781 336.693 103.596 336.364C104.428 336.017 105.338 335.844 106.326 335.844ZM106.326 346.27C106.759 346.27 107.175 346.192 107.574 346.036C107.99 345.863 108.354 345.62 108.666 345.308C108.978 344.996 109.221 344.615 109.394 344.164C109.585 343.713 109.68 343.202 109.68 342.63C109.68 342.058 109.585 341.547 109.394 341.096C109.221 340.645 108.978 340.264 108.666 339.952C108.354 339.64 107.99 339.406 107.574 339.25C107.175 339.077 106.759 338.99 106.326 338.99C105.875 338.99 105.451 339.077 105.052 339.25C104.653 339.406 104.298 339.64 103.986 339.952C103.674 340.264 103.423 340.645 103.232 341.096C103.059 341.547 102.972 342.058 102.972 342.63C102.972 343.202 103.059 343.713 103.232 344.164C103.423 344.615 103.674 344.996 103.986 345.308C104.298 345.62 104.653 345.863 105.052 346.036C105.451 346.192 105.875 346.27 106.326 346.27ZM115.02 336.26H118.218V338.028H118.426C118.582 337.716 118.79 337.43 119.05 337.17C119.31 336.91 119.596 336.685 119.908 336.494C120.238 336.303 120.584 336.156 120.948 336.052C121.33 335.948 121.702 335.896 122.066 335.896C122.517 335.896 122.898 335.939 123.21 336.026C123.54 336.113 123.817 336.225 124.042 336.364L123.132 339.458C122.924 339.354 122.69 339.276 122.43 339.224C122.188 339.155 121.884 339.12 121.52 339.12C121.052 339.12 120.628 339.215 120.246 339.406C119.865 339.579 119.536 339.831 119.258 340.16C118.998 340.489 118.79 340.879 118.634 341.33C118.496 341.763 118.426 342.24 118.426 342.76V349H115.02V336.26ZM125.608 336.26H128.806V337.924H129.014C129.413 337.3 129.95 336.797 130.626 336.416C131.32 336.035 132.082 335.844 132.914 335.844C133.885 335.844 134.7 336.069 135.358 336.52C136.017 336.971 136.485 337.525 136.762 338.184C137.161 337.543 137.724 336.997 138.452 336.546C139.18 336.078 140.064 335.844 141.104 335.844C141.884 335.844 142.56 335.974 143.132 336.234C143.704 336.477 144.172 336.823 144.536 337.274C144.918 337.725 145.204 338.271 145.394 338.912C145.585 339.536 145.68 340.221 145.68 340.966V349H142.274V341.59C142.274 339.857 141.564 338.99 140.142 338.99C139.692 338.99 139.293 339.094 138.946 339.302C138.6 339.493 138.305 339.761 138.062 340.108C137.837 340.437 137.655 340.836 137.516 341.304C137.395 341.772 137.334 342.275 137.334 342.812V349H133.928V341.59C133.928 339.857 133.183 338.99 131.692 338.99C131.259 338.99 130.878 339.094 130.548 339.302C130.219 339.493 129.942 339.761 129.716 340.108C129.491 340.437 129.318 340.836 129.196 341.304C129.075 341.772 129.014 342.275 129.014 342.812V349H125.608V336.26ZM156.21 347.648H156.002C155.604 348.133 155.118 348.549 154.546 348.896C153.992 349.243 153.272 349.416 152.388 349.416C151.73 349.416 151.106 349.303 150.516 349.078C149.944 348.87 149.442 348.575 149.008 348.194C148.575 347.813 148.237 347.353 147.994 346.816C147.752 346.279 147.63 345.689 147.63 345.048C147.63 344.389 147.76 343.8 148.02 343.28C148.28 342.743 148.644 342.283 149.112 341.902C149.58 341.521 150.126 341.235 150.75 341.044C151.392 340.836 152.085 340.732 152.83 340.732C153.662 340.732 154.347 340.801 154.884 340.94C155.422 341.061 155.864 341.191 156.21 341.33V340.94C156.21 340.264 155.942 339.709 155.404 339.276C154.867 338.825 154.2 338.6 153.402 338.6C152.224 338.6 151.227 339.094 150.412 340.082L147.942 338.392C149.294 336.693 151.14 335.844 153.48 335.844C155.456 335.844 156.964 336.312 158.004 337.248C159.044 338.167 159.564 339.536 159.564 341.356V349H156.21V347.648ZM156.21 343.826C155.812 343.635 155.396 343.488 154.962 343.384C154.546 343.263 154.087 343.202 153.584 343.202C152.77 343.202 152.137 343.384 151.686 343.748C151.253 344.095 151.036 344.528 151.036 345.048C151.036 345.568 151.244 345.984 151.66 346.296C152.094 346.608 152.588 346.764 153.142 346.764C153.593 346.764 154.009 346.686 154.39 346.53C154.772 346.357 155.092 346.14 155.352 345.88C155.63 345.603 155.838 345.291 155.976 344.944C156.132 344.58 156.21 344.207 156.21 343.826ZM163.423 339.172H161.187V336.26H163.423V332.36H166.829V336.26H169.949V339.172H166.829V344.112C166.829 344.407 166.855 344.684 166.907 344.944C166.976 345.187 167.097 345.395 167.271 345.568C167.513 345.845 167.86 345.984 168.311 345.984C168.605 345.984 168.839 345.958 169.013 345.906C169.186 345.837 169.351 345.75 169.507 345.646L170.469 348.636C170.07 348.827 169.637 348.965 169.169 349.052C168.718 349.156 168.215 349.208 167.661 349.208C167.019 349.208 166.439 349.113 165.919 348.922C165.416 348.714 164.991 348.437 164.645 348.09C163.83 347.31 163.423 346.201 163.423 344.762V339.172ZM174.479 334.414C174.184 334.414 173.898 334.362 173.621 334.258C173.361 334.137 173.127 333.981 172.919 333.79C172.728 333.582 172.572 333.348 172.451 333.088C172.347 332.828 172.295 332.542 172.295 332.23C172.295 331.918 172.347 331.632 172.451 331.372C172.572 331.112 172.728 330.887 172.919 330.696C173.127 330.488 173.361 330.332 173.621 330.228C173.898 330.107 174.184 330.046 174.479 330.046C175.086 330.046 175.606 330.263 176.039 330.696C176.472 331.112 176.689 331.623 176.689 332.23C176.689 332.837 176.472 333.357 176.039 333.79C175.606 334.206 175.086 334.414 174.479 334.414ZM172.789 349V336.26H176.195V349H172.789ZM185.215 335.844C186.203 335.844 187.104 336.017 187.919 336.364C188.751 336.693 189.461 337.161 190.051 337.768C190.657 338.357 191.125 339.068 191.455 339.9C191.801 340.732 191.975 341.642 191.975 342.63C191.975 343.618 191.801 344.528 191.455 345.36C191.125 346.192 190.657 346.911 190.051 347.518C189.461 348.107 188.751 348.575 187.919 348.922C187.104 349.251 186.203 349.416 185.215 349.416C184.227 349.416 183.317 349.251 182.485 348.922C181.67 348.575 180.959 348.107 180.353 347.518C179.763 346.911 179.295 346.192 178.949 345.36C178.619 344.528 178.455 343.618 178.455 342.63C178.455 341.642 178.619 340.732 178.949 339.9C179.295 339.068 179.763 338.357 180.353 337.768C180.959 337.161 181.67 336.693 182.485 336.364C183.317 336.017 184.227 335.844 185.215 335.844ZM185.215 346.27C185.648 346.27 186.064 346.192 186.463 346.036C186.879 345.863 187.243 345.62 187.555 345.308C187.867 344.996 188.109 344.615 188.283 344.164C188.473 343.713 188.569 343.202 188.569 342.63C188.569 342.058 188.473 341.547 188.283 341.096C188.109 340.645 187.867 340.264 187.555 339.952C187.243 339.64 186.879 339.406 186.463 339.25C186.064 339.077 185.648 338.99 185.215 338.99C184.764 338.99 184.339 339.077 183.941 339.25C183.542 339.406 183.187 339.64 182.875 339.952C182.563 340.264 182.311 340.645 182.121 341.096C181.947 341.547 181.861 342.058 181.861 342.63C181.861 343.202 181.947 343.713 182.121 344.164C182.311 344.615 182.563 344.996 182.875 345.308C183.187 345.62 183.542 345.863 183.941 346.036C184.339 346.192 184.764 346.27 185.215 346.27ZM197.107 337.924H197.315C197.714 337.283 198.251 336.78 198.927 336.416C199.603 336.035 200.374 335.844 201.241 335.844C202.038 335.844 202.74 335.974 203.347 336.234C203.954 336.494 204.448 336.867 204.829 337.352C205.228 337.82 205.522 338.392 205.713 339.068C205.921 339.727 206.025 340.463 206.025 341.278V349H202.619V341.694C202.619 340.775 202.411 340.099 201.995 339.666C201.596 339.215 201.007 338.99 200.227 338.99C199.759 338.99 199.343 339.094 198.979 339.302C198.632 339.493 198.329 339.761 198.069 340.108C197.826 340.437 197.636 340.836 197.497 341.304C197.376 341.755 197.315 342.24 197.315 342.76V349H193.909V336.26H197.107V337.924ZM217.879 349V333.712H212.679V330.384H226.589V333.712H221.389V349H217.879ZM238.651 345.932C238.062 346.972 237.264 347.813 236.259 348.454C235.271 349.095 234.058 349.416 232.619 349.416C231.648 349.416 230.747 349.251 229.915 348.922C229.1 348.575 228.39 348.099 227.783 347.492C227.176 346.885 226.7 346.175 226.353 345.36C226.024 344.528 225.859 343.618 225.859 342.63C225.859 341.711 226.024 340.845 226.353 340.03C226.682 339.198 227.142 338.479 227.731 337.872C228.32 337.248 229.014 336.754 229.811 336.39C230.626 336.026 231.518 335.844 232.489 335.844C233.512 335.844 234.422 336.017 235.219 336.364C236.016 336.693 236.684 337.161 237.221 337.768C237.758 338.357 238.166 339.059 238.443 339.874C238.72 340.689 238.859 341.573 238.859 342.526C238.859 342.647 238.859 342.751 238.859 342.838C238.842 342.942 238.833 343.037 238.833 343.124C238.816 343.211 238.807 343.306 238.807 343.41H229.213C229.282 343.93 229.421 344.381 229.629 344.762C229.854 345.126 230.123 345.438 230.435 345.698C230.764 345.941 231.12 346.123 231.501 346.244C231.882 346.348 232.272 346.4 232.671 346.4C233.451 346.4 234.092 346.227 234.595 345.88C235.115 345.516 235.522 345.065 235.817 344.528L238.651 345.932ZM235.557 340.992C235.54 340.767 235.462 340.515 235.323 340.238C235.202 339.961 235.011 339.701 234.751 339.458C234.508 339.215 234.196 339.016 233.815 338.86C233.451 338.704 233.009 338.626 232.489 338.626C231.761 338.626 231.12 338.834 230.565 339.25C230.01 339.666 229.62 340.247 229.395 340.992H235.557ZM253.251 345.75C252.696 346.825 251.916 347.709 250.911 348.402C249.923 349.078 248.684 349.416 247.193 349.416C246.205 349.416 245.295 349.251 244.463 348.922C243.648 348.575 242.938 348.099 242.331 347.492C241.742 346.885 241.274 346.175 240.927 345.36C240.598 344.528 240.433 343.618 240.433 342.63C240.433 341.642 240.598 340.732 240.927 339.9C241.274 339.068 241.742 338.357 242.331 337.768C242.938 337.161 243.648 336.693 244.463 336.364C245.295 336.017 246.205 335.844 247.193 335.844C248.666 335.844 249.906 336.182 250.911 336.858C251.916 337.534 252.653 338.409 253.121 339.484L250.001 340.784C249.706 340.195 249.325 339.753 248.857 339.458C248.406 339.146 247.834 338.99 247.141 338.99C246.69 338.99 246.266 339.077 245.867 339.25C245.468 339.423 245.113 339.666 244.801 339.978C244.506 340.29 244.272 340.671 244.099 341.122C243.926 341.573 243.839 342.075 243.839 342.63C243.839 343.185 243.926 343.687 244.099 344.138C244.272 344.589 244.506 344.97 244.801 345.282C245.113 345.594 245.468 345.837 245.867 346.01C246.266 346.183 246.69 346.27 247.141 346.27C247.852 346.27 248.45 346.114 248.935 345.802C249.438 345.473 249.836 345.005 250.131 344.398L253.251 345.75ZM255.329 330.384H258.735V335.61L258.527 337.924H258.735C259.099 337.317 259.619 336.823 260.295 336.442C260.988 336.043 261.76 335.844 262.609 335.844C264.256 335.844 265.469 336.329 266.249 337.3C267.046 338.271 267.445 339.597 267.445 341.278V349H264.039V341.694C264.039 340.81 263.831 340.143 263.415 339.692C262.999 339.224 262.418 338.99 261.673 338.99C261.205 338.99 260.789 339.094 260.425 339.302C260.061 339.493 259.749 339.761 259.489 340.108C259.246 340.455 259.056 340.862 258.917 341.33C258.796 341.781 258.735 342.266 258.735 342.786V349H255.329V330.384ZM273.457 337.924H273.665C274.063 337.283 274.601 336.78 275.277 336.416C275.953 336.035 276.724 335.844 277.591 335.844C278.388 335.844 279.09 335.974 279.697 336.234C280.303 336.494 280.797 336.867 281.179 337.352C281.577 337.82 281.872 338.392 282.063 339.068C282.271 339.727 282.375 340.463 282.375 341.278V349H278.969V341.694C278.969 340.775 278.761 340.099 278.345 339.666C277.946 339.215 277.357 338.99 276.577 338.99C276.109 338.99 275.693 339.094 275.329 339.302C274.982 339.493 274.679 339.761 274.419 340.108C274.176 340.437 273.985 340.836 273.847 341.304C273.725 341.755 273.665 342.24 273.665 342.76V349H270.259V336.26H273.457V337.924ZM291.22 335.844C292.208 335.844 293.11 336.017 293.924 336.364C294.756 336.693 295.467 337.161 296.056 337.768C296.663 338.357 297.131 339.068 297.46 339.9C297.807 340.732 297.98 341.642 297.98 342.63C297.98 343.618 297.807 344.528 297.46 345.36C297.131 346.192 296.663 346.911 296.056 347.518C295.467 348.107 294.756 348.575 293.924 348.922C293.11 349.251 292.208 349.416 291.22 349.416C290.232 349.416 289.322 349.251 288.49 348.922C287.676 348.575 286.965 348.107 286.358 347.518C285.769 346.911 285.301 346.192 284.954 345.36C284.625 344.528 284.46 343.618 284.46 342.63C284.46 341.642 284.625 340.732 284.954 339.9C285.301 339.068 285.769 338.357 286.358 337.768C286.965 337.161 287.676 336.693 288.49 336.364C289.322 336.017 290.232 335.844 291.22 335.844ZM291.22 346.27C291.654 346.27 292.07 346.192 292.468 346.036C292.884 345.863 293.248 345.62 293.56 345.308C293.872 344.996 294.115 344.615 294.288 344.164C294.479 343.713 294.574 343.202 294.574 342.63C294.574 342.058 294.479 341.547 294.288 341.096C294.115 340.645 293.872 340.264 293.56 339.952C293.248 339.64 292.884 339.406 292.468 339.25C292.07 339.077 291.654 338.99 291.22 338.99C290.77 338.99 290.345 339.077 289.946 339.25C289.548 339.406 289.192 339.64 288.88 339.952C288.568 340.264 288.317 340.645 288.126 341.096C287.953 341.547 287.866 342.058 287.866 342.63C287.866 343.202 287.953 343.713 288.126 344.164C288.317 344.615 288.568 344.996 288.88 345.308C289.192 345.62 289.548 345.863 289.946 346.036C290.345 346.192 290.77 346.27 291.22 346.27ZM300.042 349V330.384H303.448V349H300.042ZM312.269 335.844C313.257 335.844 314.159 336.017 314.973 336.364C315.805 336.693 316.516 337.161 317.105 337.768C317.712 338.357 318.18 339.068 318.509 339.9C318.856 340.732 319.029 341.642 319.029 342.63C319.029 343.618 318.856 344.528 318.509 345.36C318.18 346.192 317.712 346.911 317.105 347.518C316.516 348.107 315.805 348.575 314.973 348.922C314.159 349.251 313.257 349.416 312.269 349.416C311.281 349.416 310.371 349.251 309.539 348.922C308.725 348.575 308.014 348.107 307.407 347.518C306.818 346.911 306.35 346.192 306.003 345.36C305.674 344.528 305.509 343.618 305.509 342.63C305.509 341.642 305.674 340.732 306.003 339.9C306.35 339.068 306.818 338.357 307.407 337.768C308.014 337.161 308.725 336.693 309.539 336.364C310.371 336.017 311.281 335.844 312.269 335.844ZM312.269 346.27C312.703 346.27 313.119 346.192 313.517 346.036C313.933 345.863 314.297 345.62 314.609 345.308C314.921 344.996 315.164 344.615 315.337 344.164C315.528 343.713 315.623 343.202 315.623 342.63C315.623 342.058 315.528 341.547 315.337 341.096C315.164 340.645 314.921 340.264 314.609 339.952C314.297 339.64 313.933 339.406 313.517 339.25C313.119 339.077 312.703 338.99 312.269 338.99C311.819 338.99 311.394 339.077 310.995 339.25C310.597 339.406 310.241 339.64 309.929 339.952C309.617 340.264 309.366 340.645 309.175 341.096C309.002 341.547 308.915 342.058 308.915 342.63C308.915 343.202 309.002 343.713 309.175 344.164C309.366 344.615 309.617 344.996 309.929 345.308C310.241 345.62 310.597 345.863 310.995 346.036C311.394 346.192 311.819 346.27 312.269 346.27ZM327.094 355.032C326.192 355.032 325.386 354.911 324.676 354.668C323.982 354.443 323.376 354.139 322.856 353.758C322.336 353.394 321.902 352.987 321.556 352.536C321.209 352.085 320.958 351.635 320.802 351.184L324.052 349.884C324.294 350.56 324.693 351.08 325.248 351.444C325.802 351.825 326.418 352.016 327.094 352.016C328.168 352.016 329.018 351.678 329.642 351.002C330.266 350.343 330.578 349.416 330.578 348.22V347.336H330.37C329.971 347.891 329.442 348.333 328.784 348.662C328.142 348.974 327.38 349.13 326.496 349.13C325.733 349.13 324.988 348.974 324.26 348.662C323.549 348.35 322.916 347.908 322.362 347.336C321.807 346.747 321.356 346.045 321.01 345.23C320.663 344.415 320.49 343.505 320.49 342.5C320.49 341.495 320.663 340.585 321.01 339.77C321.356 338.938 321.807 338.236 322.362 337.664C322.916 337.075 323.549 336.624 324.26 336.312C324.988 336 325.733 335.844 326.496 335.844C327.38 335.844 328.142 336.009 328.784 336.338C329.442 336.65 329.971 337.083 330.37 337.638H330.578V336.26H333.828V348.09C333.828 349.165 333.663 350.127 333.334 350.976C333.004 351.843 332.545 352.571 331.956 353.16C331.366 353.767 330.656 354.226 329.824 354.538C329.009 354.867 328.099 355.032 327.094 355.032ZM327.224 346.062C327.64 346.062 328.047 345.984 328.446 345.828C328.862 345.672 329.226 345.447 329.538 345.152C329.85 344.84 330.101 344.467 330.292 344.034C330.482 343.583 330.578 343.072 330.578 342.5C330.578 341.928 330.482 341.417 330.292 340.966C330.101 340.515 329.85 340.143 329.538 339.848C329.226 339.536 328.862 339.302 328.446 339.146C328.047 338.99 327.64 338.912 327.224 338.912C326.808 338.912 326.4 338.99 326.002 339.146C325.603 339.302 325.248 339.536 324.936 339.848C324.624 340.16 324.372 340.541 324.182 340.992C323.991 341.425 323.896 341.928 323.896 342.5C323.896 343.072 323.991 343.583 324.182 344.034C324.372 344.467 324.624 344.84 324.936 345.152C325.248 345.447 325.603 345.672 326.002 345.828C326.4 345.984 326.808 346.062 327.224 346.062ZM340.735 348.376L335.379 336.26H339.253L342.477 343.982H342.659L345.753 336.26H349.549L341.567 354.616H337.901L340.735 348.376ZM178.443 381V362.384H184.995C185.879 362.384 186.703 362.531 187.465 362.826C188.245 363.103 188.921 363.502 189.493 364.022C190.065 364.542 190.516 365.166 190.845 365.894C191.175 366.605 191.339 367.393 191.339 368.26C191.339 369.144 191.175 369.95 190.845 370.678C190.516 371.389 190.065 372.004 189.493 372.524C188.921 373.044 188.245 373.451 187.465 373.746C186.703 374.023 185.879 374.162 184.995 374.162H181.953V381H178.443ZM185.047 370.834C185.966 370.834 186.659 370.574 187.127 370.054C187.595 369.534 187.829 368.936 187.829 368.26C187.829 367.931 187.769 367.61 187.647 367.298C187.543 366.986 187.37 366.717 187.127 366.492C186.902 366.249 186.616 366.059 186.269 365.92C185.923 365.781 185.515 365.712 185.047 365.712H181.953V370.834H185.047ZM199.524 381.416C198.727 381.416 197.964 381.303 197.236 381.078C196.508 380.853 195.841 380.515 195.234 380.064C194.627 379.613 194.099 379.067 193.648 378.426C193.197 377.767 192.842 377.005 192.582 376.138L195.884 374.838C196.127 375.774 196.551 376.554 197.158 377.178C197.765 377.785 198.562 378.088 199.55 378.088C199.914 378.088 200.261 378.045 200.59 377.958C200.937 377.854 201.24 377.715 201.5 377.542C201.777 377.351 201.994 377.117 202.15 376.84C202.306 376.563 202.384 376.242 202.384 375.878C202.384 375.531 202.323 375.219 202.202 374.942C202.081 374.665 201.873 374.405 201.578 374.162C201.301 373.919 200.928 373.685 200.46 373.46C200.009 373.235 199.446 373.001 198.77 372.758L197.626 372.342C197.123 372.169 196.612 371.935 196.092 371.64C195.589 371.345 195.13 370.99 194.714 370.574C194.298 370.158 193.951 369.673 193.674 369.118C193.414 368.546 193.284 367.905 193.284 367.194C193.284 366.466 193.423 365.79 193.7 365.166C193.995 364.525 194.402 363.97 194.922 363.502C195.459 363.017 196.092 362.644 196.82 362.384C197.565 362.107 198.389 361.968 199.29 361.968C200.226 361.968 201.032 362.098 201.708 362.358C202.401 362.601 202.982 362.921 203.45 363.32C203.935 363.701 204.325 364.126 204.62 364.594C204.915 365.062 205.131 365.504 205.27 365.92L202.176 367.22C202.003 366.7 201.682 366.232 201.214 365.816C200.763 365.4 200.139 365.192 199.342 365.192C198.579 365.192 197.947 365.374 197.444 365.738C196.941 366.085 196.69 366.544 196.69 367.116C196.69 367.671 196.933 368.147 197.418 368.546C197.903 368.927 198.675 369.3 199.732 369.664L200.902 370.054C201.647 370.314 202.323 370.617 202.93 370.964C203.554 371.293 204.083 371.692 204.516 372.16C204.967 372.628 205.305 373.165 205.53 373.772C205.773 374.361 205.894 375.046 205.894 375.826C205.894 376.797 205.695 377.637 205.296 378.348C204.915 379.041 204.421 379.613 203.814 380.064C203.207 380.515 202.523 380.853 201.76 381.078C200.997 381.303 200.252 381.416 199.524 381.416ZM208.785 362.384H215.571C216.507 362.384 217.356 362.531 218.119 362.826C218.882 363.121 219.532 363.528 220.069 364.048C220.624 364.568 221.048 365.192 221.343 365.92C221.638 366.631 221.785 367.411 221.785 368.26C221.785 368.884 221.681 369.473 221.473 370.028C221.265 370.565 220.979 371.059 220.615 371.51C220.251 371.943 219.826 372.333 219.341 372.68C218.856 373.009 218.344 373.269 217.807 373.46L217.781 373.642L222.773 380.792V381H218.743L213.933 374.006H212.295V381H208.785V362.384ZM215.545 370.782C216.342 370.782 216.992 370.539 217.495 370.054C218.015 369.569 218.275 368.953 218.275 368.208C218.275 367.879 218.214 367.558 218.093 367.246C217.989 366.934 217.824 366.657 217.599 366.414C217.374 366.171 217.088 365.981 216.741 365.842C216.412 365.686 216.03 365.608 215.597 365.608H212.295V370.782H215.545ZM231.72 381.416C230.628 381.416 229.631 381.243 228.73 380.896C227.846 380.532 227.092 380.012 226.468 379.336C225.844 378.66 225.359 377.845 225.012 376.892C224.665 375.921 224.492 374.821 224.492 373.59V362.384H228.002V373.798C228.002 374.422 228.08 374.994 228.236 375.514C228.392 376.034 228.626 376.485 228.938 376.866C229.25 377.247 229.64 377.551 230.108 377.776C230.576 377.984 231.113 378.088 231.72 378.088C232.344 378.088 232.89 377.984 233.358 377.776C233.826 377.551 234.216 377.247 234.528 376.866C234.84 376.485 235.074 376.034 235.23 375.514C235.386 374.994 235.464 374.422 235.464 373.798V362.384H238.974V373.59C238.974 374.751 238.801 375.817 238.454 376.788C238.125 377.741 237.639 378.565 236.998 379.258C236.374 379.934 235.611 380.463 234.71 380.844C233.826 381.225 232.829 381.416 231.72 381.416Z" fill="black"/>
</g>
<defs>
<filter id="filter0_b" x="-95" y="-207" width="941.94" height="1176.47" filterUnits="userSpaceOnUse" color-interpolation-filters="sRGB">
<feFlood flood-opacity="0" result="BackgroundImageFix"/>
<feGaussianBlur in="BackgroundImage" stdDeviation="7"/>
<feComposite in2="SourceAlpha" operator="in" result="effect1_backgroundBlur"/>
<feBlend mode="normal" in="SourceGraphic" in2="effect1_backgroundBlur" result="shape"/>
</filter>
<linearGradient id="paint0_linear" x1="148" y1="148" x2="285.899" y2="169.904" gradientUnits="userSpaceOnUse">
<stop stop-color="#F5872C"/>
<stop offset="1" stop-color="#FF6996"/>
</linearGradient>
<clipPath id="clip0">
<rect width="414" height="896" fill="white"/>
</clipPath>
</defs>
</svg>
